<svg xmlns="http://www.w3.org/2000/svg" viewBox="0 0 32 32">
  <defs>
    <linearGradient id="g" x1="0" y1="0" x2="1" y2="1">
      <stop offset="0%" stop-color="#a78bfa"/>
      <stop offset="50%" stop-color="#f472b6"/>
      <stop offset="100%" stop-color="#fb923c"/>
    </linearGradient>
  </defs>
  <!-- 圆形背景 -->
  <rect width="32" height="32" rx="6" fill="#0a0a0f"/>
  <rect width="30" height="30" x="1" y="1" rx="5" fill="none" stroke="url(#g)" stroke-width="1.5" opacity="0.5"/>
  <!-- 火焰/锻造图标 -->
  <path d="M16 6c-2 5-5 8-5 11a5 5 0 0 0 10 0c0-3-3-6-5-11z" fill="url(#g)" opacity="0.9"/>
  <path d="M16 10c-1 3-3 5-3 7a3 3 0 0 0 6 0c0-2-2-4-3-7z" fill="#0a0a0f" opacity="0.3"/>
  <!-- 底部火花 -->
  <circle cx="13" cy="24" r="1" fill="#fb923c" opacity="0.8"/>
  <circle cx="19" cy="25" r="0.7" fill="#f472b6" opacity="0.7"/>
  <circle cx="16" cy="26" r="0.5" fill="#a78bfa" opacity="0.6"/>
</svg>
