<svg xmlns="http://www.w3.org/2000/svg" viewBox="0 0 32 32">
  <defs>
    <linearGradient id="g1" x1="50%" y1="100%" x2="50%" y2="0%">
      <stop offset="0%" stop-color="#f97316"/>
      <stop offset="40%" stop-color="#f472b6"/>
      <stop offset="100%" stop-color="#7c3aed"/>
    </linearGradient>
    <linearGradient id="g2" x1="50%" y1="100%" x2="50%" y2="0%">
      <stop offset="0%" stop-color="#fbbf24"/>
      <stop offset="60%" stop-color="#f97316"/>
      <stop offset="100%" stop-color="#ec4899"/>
    </linearGradient>
  </defs>
  <rect width="32" height="32" rx="6" fill="#0a0a0f"/>
  <path d="M16 2C11 8 7 13 7 17a9 9 0 0 0 18 0c0-4-4-9-9-15z" fill="url(#g1)"/>
  <path d="M16 7c-3 4-5 7-5 10a5 5 0 0 0 10 0c0-3-2-6-5-10z" fill="url(#g2)"/>
  <path d="M16 2c-1 2-2 3-3 3l1 1c1-1 2-2 2-4z" fill="#7c3aed" opacity=".7"/>
</svg>